<?xml version="1.0" standalone="no"?><!DOCTYPE svg PUBLIC "-//W3C//DTD SVG 1.1//EN" "http://www.w3.org/Graphics/SVG/1.1/DTD/svg11.dtd"><svg class="icon" width="200px" height="200.00px" viewBox="0 0 1024 1024" version="1.1" xmlns="http://www.w3.org/2000/svg"><path fill="#333333" d="M761.583 134.827h-362.633c-28.035 0.037-50.753 22.755-50.79 50.79v652.834c2.028 39.099 45.62 61.34 78.467 40.034 13.582-8.906 22.574-23.843 23.152-40.914l-0.038-274.917h203.093c39.072-1.434 61.941-44.626 41.164-77.747-8.922-14.058-24.243-23.358-41.765-23.785l-202.56 0.019v-224.802h311.91c39.072-2.483 60.804-46.332 39.118-78.928-8.879-13.209-23.509-21.958-40.221-22.643zM1032.533-34.133v1066.667h-1066.667v-1066.667z" /></svg>