<?xml version="1.0" standalone="no"?><!DOCTYPE svg PUBLIC "-//W3C//DTD SVG 1.1//EN" "http://www.w3.org/Graphics/SVG/1.1/DTD/svg11.dtd"><svg class="icon" width="200px" height="200.00px" viewBox="0 0 1024 1024" version="1.1" xmlns="http://www.w3.org/2000/svg"><path fill="#333333" d="M853.312 1024H170.688L28.416 208.384 209.088 8.256V1.088h594.752L804.928 0l1.344 1.088h8.576v6.784l180.672 200.512L853.312 1024z m-654.208-56.896h625.728l113.792-701.824H85.312l113.792 701.824zM795.2 31.168H228.736L82.368 219.52h859.328L795.2 31.168zM512 746.496c-153.216 0-220.48-180.928-220.48-334.016h42.688c0 129.344 48.384 291.392 177.856 291.392 129.344 0 177.728-162.048 177.728-291.392h42.624c-0.064 153.088-67.264 334.016-220.416 334.016z"  /></svg>