<?xml version="1.0" standalone="no"?><!DOCTYPE svg PUBLIC "-//W3C//DTD SVG 1.1//EN" "http://www.w3.org/Graphics/SVG/1.1/DTD/svg11.dtd"><svg class="icon" width="200px" height="200.00px" viewBox="0 0 1024 1024" version="1.1" xmlns="http://www.w3.org/2000/svg"><path fill="#333333" d="M813.12 950.848H593.664v-170.624c0-22.4-10.176-44.736-26.368-60.992a78.72 78.72 0 0 0-62.976-22.4c-42.688 2.112-79.232 42.752-79.232 89.344v164.608H207.616a67.712 67.712 0 0 1-67.072-67.136V540.48H45.056c-20.288 0-36.608-12.16-42.688-30.528s0-38.592 14.272-50.816l493.76-386.048 229.632 178.816v-69.12c0-26.432 22.336-48.768 48.768-48.768h87.36c26.432 0 48.832 22.336 48.832 48.768v211.328l81.28 62.976a41.6 41.6 0 0 1 14.272 50.816 44.16 44.16 0 0 1-42.688 30.528h-95.488v343.296c-2.176 38.656-32.64 69.12-69.248 69.12zM975.744 499.84s4.032 0 4.032-4.096c2.048-4.032 0-4.032-1.984-6.08M784.704 174.72"  /></svg>