<?xml version="1.0" standalone="no"?><!DOCTYPE svg PUBLIC "-//W3C//DTD SVG 1.1//EN" "http://www.w3.org/Graphics/SVG/1.1/DTD/svg11.dtd"><svg class="icon" width="200px" height="200.00px" viewBox="0 0 1024 1024" version="1.1" xmlns="http://www.w3.org/2000/svg"><path fill="#333333" d="M813.19872 950.848H593.74272V780.16c0-22.336-10.176-44.672-26.432-60.928a78.592 78.592 0 0 0-62.976-22.4c-42.688 1.984-79.232 42.688-79.232 89.344v164.608H207.69472a67.648 67.648 0 0 1-67.072-67.072V540.416H45.13472a43.904 43.904 0 0 1-42.688-30.528 47.552 47.552 0 0 1 14.272-50.752l493.76-386.048 229.632 178.752v-69.12c0-26.432 22.336-48.704 48.768-48.704h87.36c26.432 0 48.832 22.336 48.832 48.704v211.328l81.28 63.04a41.6 41.6 0 0 1 14.272 50.752 43.968 43.968 0 0 1-42.688 30.464h-95.488v343.36c-2.176 38.72-32.64 69.184-69.248 69.184z m-178.816-40.576h178.816a26.88 26.88 0 0 0 26.432-26.432v-384h136.192s4.032 0 4.032-4.032c2.048-4.096 0-4.096-1.984-6.08l-97.536-75.2v-231.68c0-4.032-4.032-8.064-8.128-8.064h-87.36c-4.032 0-8.128 4.032-8.128 8.064v152.384l-266.24-211.328L41.03872 489.664s-2.048 1.984-2.048 6.08c2.048 4.096 4.096 4.096 4.096 4.096h136.128v384c0 14.272 12.16 26.432 26.432 26.432h178.816v-124.032c0-69.056 50.816-125.952 117.888-129.984a118.08 118.08 0 0 1 91.456 34.496c24.32 24.448 38.592 54.848 38.592 89.408v130.048h1.984v0.064z"  /></svg>