<?xml version="1.0" standalone="no"?><!DOCTYPE svg PUBLIC "-//W3C//DTD SVG 1.1//EN" "http://www.w3.org/Graphics/SVG/1.1/DTD/svg11.dtd"><svg class="icon" width="200px" height="200.00px" viewBox="0 0 1024 1024" version="1.1" xmlns="http://www.w3.org/2000/svg"><path fill="#333333" d="M971.392 1024l0.32-30.336c-0.064-0.96-0.576-1.728-0.64-2.752-6.144-203.392-144.832-374.272-331.2-428.928 3.328-1.536 12.416-7.168 13.824-7.936 9.6-5.376 32.32-20.8 34.432-22.528a608.64 608.64 0 0 0 32.832-28.864c5.952-6.016 37.056-44.992 40.064-49.792a288.64 288.64 0 0 0 16.512-30.336c0.768-1.408 1.536-2.688 2.112-4.032a290.56 290.56 0 0 0 27.008-122.56C806.656 132.736 674.56 0 512.192 0h-0.448c-162.304 0-294.4 132.736-294.4 295.936A296.192 296.192 0 0 0 384 562.048C197.696 616.832 59.136 787.584 52.928 990.912c-0.064 1.024-0.576 1.792-0.576 2.816L52.672 1024"  /></svg>