<?xml version="1.0" standalone="no"?><!DOCTYPE svg PUBLIC "-//W3C//DTD SVG 1.1//EN" "http://www.w3.org/Graphics/SVG/1.1/DTD/svg11.dtd"><svg class="icon" width="200px" height="200.00px" viewBox="0 0 1024 1024" version="1.1" xmlns="http://www.w3.org/2000/svg"><path fill="#333333" d="M287.950003 663.382539a373.864633 373.864633 0 0 1 191.860009-75.323293c7.871508-0.575964 15.871008-0.831948 23.806512-1.023936 2.815824-0.063996 5.503656-0.31998 8.383476-0.31998 12.47922 0 24.894444 0.831948 37.053684 2.047872l0.063996-0.31998c176.436973 17.27892 347.114305 186.548341 367.081058 363.497282H915.174802c0.703956 2.87982 1.5999 5.75964 1.471908 9.27942-0.255984 5.951628-0.127992 11.83926-0.127992 17.726892-0.191988 1.663896-0.95994 3.071808-0.95994 4.7997 0 1.5999 0.63996 3.007812 0.895944 4.607712a42.493344 42.493344 0 0 0 2.87982 11.967252c6.3996 13.887132-8.383476 23.614524 7.807512 23.614524a39.9975 39.9975 0 0 0 39.67752-38.653584c0.063996-0.575964 0.31998-1.023936 0.31998-1.471908-0.063996-0.95994-0.575964-1.727892-0.63996-2.751828-6.07962-201.331417-143.351041-370.472845-327.85151-424.613462 3.263796-1.5999 12.287232-7.167552 13.695145-7.935504 9.471408-5.311668 31.934004-20.542716 34.045872-22.270608 8.063496-6.143616 29.374164-25.406412 32.445972-28.606212 5.951628-5.887632 36.669708-44.47722 39.67752-49.27692a277.742641 277.742641 0 0 0 16.382976-30.014124c0.703956-1.407912 1.471908-2.687832 2.111868-4.095744a288.429973 288.429973 0 0 0 26.750328-121.272421C803.757765 131.383789 672.949941 0 512.191988 0h-0.447972c-160.629961 0-291.501781 131.383789-291.501781 292.973689a293.229673 293.229673 0 0 0 164.981689 263.471533C200.851447 610.71383 63.644022 779.727267 57.43641 981.058684c-0.063996 1.023936-0.575964 1.791888-0.575964 2.751828 0 0.575964 0.255984 1.023936 0.31998 1.535904a38.3976 38.3976 0 0 0 3.967752 15.743016c6.527592 13.43916 19.902756 22.846572 35.709768 22.846572 16.190988 0 1.535904-9.727392 7.807512-23.550528a39.741516 39.741516 0 0 0 2.751828-12.031248c0.191988-1.471908 0.95994-2.943816 0.95994-4.543716 0-1.727892-0.767952-3.135804-0.95994-4.7997 0-5.951628 0.127992-11.903256-0.063996-17.790888-0.127992-3.51978 0.767952-6.3996 1.407912-9.215424h-0.95994a380.648209 380.648209 0 0 1 146.486845-258.543841m22.014624-400.48697C276.302731 162.293857 381.960127 55.932504 512 55.868508c129.911881 0.063996 235.697269 106.489344 235.697269 237.105181 0 130.679833-105.721392 236.977189-235.697269 237.041185-129.975877-0.063996-242.864821-118.136616-242.864821-237.041185h7.167552z"  /></svg>