<?xml version="1.0" standalone="no"?><!DOCTYPE svg PUBLIC "-//W3C//DTD SVG 1.1//EN" "http://www.w3.org/Graphics/SVG/1.1/DTD/svg11.dtd"><svg class="icon" width="200px" height="200.00px" viewBox="0 0 1024 1024" version="1.1" xmlns="http://www.w3.org/2000/svg"><path fill="#333333" d="M1013.012314 1013.076311a37.438385 37.438385 0 0 1-52.797723 0l-83.388404-83.388404a222.902387 222.902387 0 0 1-129.786403 41.470212c-123.578671 0-224.118335-100.475667-224.118335-224.118335s100.539664-224.118335 224.118335-224.118335a224.310327 224.310327 0 0 1 224.118335 224.118335c0 48.381914-15.359338 93.115984-41.470212 129.722406l83.388404 83.388404a37.502383 37.502383 0 0 1-0.063997 52.925717z m-265.97253-415.342088c-82.364448 0-149.433556 67.00511-149.433556 149.369558s67.069108 149.369558 149.433556 149.369559 149.433556-67.00511 149.433556-149.369559S829.404232 597.734223 747.039784 597.734223z m0 111.99517c-20.543114 0-37.374388 16.767277-37.374388 37.374388a37.374388 37.374388 0 1 1-74.68478 0c0-61.757337 50.237833-112.123165 112.059168-112.123165a37.438385 37.438385 0 0 1 0 74.748777z m112.059167-260.40477H634.980616A112.187162 112.187162 0 0 1 522.921449 337.265455V113.083123c0-61.757337 50.237833-112.059167 112.059167-112.059167h224.118335c61.821334 0 112.059167 50.301831 112.059168 112.059167V337.265455c0 61.693339-50.237833 112.059167-112.059168 112.059168z m-522.985446 521.897493H111.99517c-61.757337 0-111.99517-50.237833-111.99517-112.123165V634.980616c0-61.757337 50.301831-111.99517 112.059167-111.99517h224.118335c61.757337 0 112.059167 50.237833 112.059168 111.99517v224.118335c0 61.885331-50.301831 112.123165-112.123165 112.123165z m0-522.921449H111.99517C50.237833 448.300667 0 397.998836 0 336.2415V112.123165C0 50.301831 50.237833 0 111.99517 0h224.118335c61.757337 0 112.059167 50.301831 112.059168 112.059167v224.118335a112.187162 112.187162 0 0 1-112.059168 112.123165z"  /></svg>