<?xml version="1.0" standalone="no"?><!DOCTYPE svg PUBLIC "-//W3C//DTD SVG 1.1//EN" "http://www.w3.org/Graphics/SVG/1.1/DTD/svg11.dtd"><svg class="icon" width="200px" height="200.00px" viewBox="0 0 1024 1024" version="1.1" xmlns="http://www.w3.org/2000/svg"><path fill="#333333" d="M336.128 0H112C50.24 0 0 50.24 0 112.064v224.128c0 61.76 50.24 112.064 112 112.064h224.128c61.824 0 112.064-50.304 112.064-112.064V112.064A112.128 112.128 0 0 0 336.128 0z m65.856 336.192c0 20.608-45.248 65.792-65.792 65.792H112c-20.608 0-65.792-45.184-65.792-65.792V112.064c0-20.608 45.184-65.792 65.792-65.792h224.128c20.608 0 65.792 45.248 65.792 65.792v224.128h0.064zM336.128 522.944H112C50.24 522.944 0 573.248 0 635.008v224.128c0 61.888 50.304 112.128 112.064 112.128h224.128c61.824 0 112.064-50.24 112.064-112.128V635.008c0-61.76-50.304-112.064-112.128-112.064z m65.856 336.192c0 20.608-45.248 65.856-65.792 65.856H112c-20.608 0-65.792-45.248-65.792-65.856V635.008c0-20.48 45.184-65.792 65.792-65.792h224.128c20.608 0 65.792 45.312 65.792 65.792v224.128h0.064zM635.008 449.28h224.128c61.824 0 112.064-50.304 112.064-112.064V113.024c0-61.76-50.24-112-112.064-112H635.008c-61.76 0-112.064 50.24-112.064 112v224.128c0 61.824 50.304 112.128 112.064 112.128zM569.216 113.024c0-20.544 45.184-65.792 65.792-65.792h224.128c20.544 0 65.792 45.248 65.792 65.792v224.128c0 20.608-45.248 65.792-65.792 65.792H635.008c-20.608 0-65.792-45.184-65.792-65.792V113.024h28.416-28.416zM753.664 615.36c-76.224 0-118.656 70.016-118.656 131.776 0 20.608 16.768 8.896 37.376 8.896s37.312-16.768 37.312-37.376c0-20.48 16.832-37.376 37.376-37.376 20.608 0 37.376-16.64 37.376-37.248s-10.048-28.672-30.784-28.672z"  /><path fill="#333333" d="M1013.056 960.256l-83.392-83.392a222.848 222.848 0 0 0 41.472-129.728 224.32 224.32 0 0 0-224.128-224.128c-123.584 0-224.128 100.544-224.128 224.128s100.544 224.128 224.128 224.128c48.384 0 93.12-15.36 129.792-41.472l83.392 83.392a37.44 37.44 0 0 0 52.864-52.928z m-443.776-206.528a184.512 184.512 0 0 1 368.896 0 184.768 184.768 0 0 1-184.512 184.512c-101.696 0-184.448-108.736-184.448-191.104l0.064 6.592z"  /></svg>